<svg xmlns="http://www.w3.org/2000/svg" xmlns:xlink="http://www.w3.org/1999/xlink" width="500" zoomAndPan="magnify" viewBox="0 0 375 374.999991" height="500" preserveAspectRatio="xMidYMid meet" version="1.0"><defs><g/></defs><g fill="#000000" fill-opacity="1"><g transform="translate(38.397241, 155.370904)"><g><path d="M 2.9375 0 L 2.9375 -66.3125 L 16.0625 -66.3125 L 16.0625 -39.765625 L 22.234375 -66.3125 L 35.59375 -66.3125 L 28.171875 -35.984375 L 37.140625 0 L 23.390625 0 L 16.140625 -32.109375 L 16.140625 0 Z M 2.9375 0 "/></g></g></g><g fill="#000000" fill-opacity="1"><g transform="translate(77.616593, 155.370904)"><g><path d="M 2.3125 0 L 2.3125 -66.3125 L 15.125 -66.3125 L 15.125 0 Z M 2.3125 0 "/></g></g></g><g fill="#000000" fill-opacity="1"><g transform="translate(97.921186, 155.370904)"><g><path d="M 18.375 0.625 C 13.539062 0.625 9.664062 -0.894531 6.75 -3.9375 C 3.84375 -6.976562 2.390625 -11.144531 2.390625 -16.4375 L 2.390625 -47.015625 C 2.390625 -53.609375 3.703125 -58.578125 6.328125 -61.921875 C 8.953125 -65.265625 13.070312 -66.9375 18.6875 -66.9375 C 23.570312 -66.9375 27.503906 -65.597656 30.484375 -62.921875 C 33.472656 -60.242188 34.96875 -56.382812 34.96875 -51.34375 L 34.96875 -39.90625 L 21.765625 -39.90625 L 21.765625 -49.71875 C 21.765625 -51.625 21.53125 -52.9375 21.0625 -53.65625 C 20.601562 -54.375 19.8125 -54.734375 18.6875 -54.734375 C 17.5 -54.734375 16.6875 -54.320312 16.25 -53.5 C 15.8125 -52.675781 15.59375 -51.46875 15.59375 -49.875 L 15.59375 -16.59375 C 15.59375 -14.84375 15.847656 -13.566406 16.359375 -12.765625 C 16.878906 -11.972656 17.65625 -11.578125 18.6875 -11.578125 C 20.738281 -11.578125 21.765625 -13.25 21.765625 -16.59375 L 21.765625 -28.5625 L 35.125 -28.5625 L 35.125 -16.0625 C 35.125 -4.9375 29.539062 0.625 18.375 0.625 Z M 18.375 0.625 "/></g></g></g><g fill="#000000" fill-opacity="1"><g transform="translate(137.294947, 155.370904)"><g><path d="M 2.9375 0 L 2.9375 -66.3125 L 16.0625 -66.3125 L 16.0625 -39.765625 L 22.234375 -66.3125 L 35.59375 -66.3125 L 28.171875 -35.984375 L 37.140625 0 L 23.390625 0 L 16.140625 -32.109375 L 16.140625 0 Z M 2.9375 0 "/></g></g></g><g fill="#000000" fill-opacity="1"><g transform="translate(176.514304, 155.370904)"><g><path d="M 18.6875 0.625 C 12.664062 0.625 8.316406 -0.867188 5.640625 -3.859375 C 2.960938 -6.847656 1.625 -11.660156 1.625 -18.296875 L 1.625 -24.78125 L 14.671875 -24.78125 L 14.671875 -16.515625 C 14.671875 -13.222656 15.722656 -11.578125 17.828125 -11.578125 C 19.015625 -11.578125 19.835938 -11.925781 20.296875 -12.625 C 20.765625 -13.320312 21 -14.492188 21 -16.140625 C 21 -18.296875 20.738281 -20.082031 20.21875 -21.5 C 19.707031 -22.914062 19.050781 -24.097656 18.25 -25.046875 C 17.457031 -26.003906 16.03125 -27.484375 13.96875 -29.484375 L 8.265625 -35.203125 C 3.835938 -39.523438 1.625 -44.3125 1.625 -49.5625 C 1.625 -55.226562 2.921875 -59.539062 5.515625 -62.5 C 8.117188 -65.457031 11.914062 -66.9375 16.90625 -66.9375 C 22.875 -66.9375 27.171875 -65.351562 29.796875 -62.1875 C 32.421875 -59.019531 33.734375 -54.066406 33.734375 -47.328125 L 20.234375 -47.328125 L 20.15625 -51.875 C 20.15625 -52.75 19.910156 -53.441406 19.421875 -53.953125 C 18.929688 -54.472656 18.25 -54.734375 17.375 -54.734375 C 16.34375 -54.734375 15.566406 -54.445312 15.046875 -53.875 C 14.535156 -53.3125 14.28125 -52.546875 14.28125 -51.578125 C 14.28125 -49.410156 15.515625 -47.171875 17.984375 -44.859375 L 25.703125 -37.4375 C 27.503906 -35.6875 29 -34.023438 30.1875 -32.453125 C 31.375 -30.890625 32.328125 -29.039062 33.046875 -26.90625 C 33.765625 -24.769531 34.125 -22.234375 34.125 -19.296875 C 34.125 -12.765625 32.925781 -7.8125 30.53125 -4.4375 C 28.132812 -1.0625 24.1875 0.625 18.6875 0.625 Z M 18.6875 0.625 "/></g></g></g><g fill="#000000" fill-opacity="1"><g transform="translate(214.884419, 155.370904)"><g/></g></g><g fill="#000000" fill-opacity="1"><g transform="translate(235.729441, 155.370904)"><g><path d="M 18.765625 0.625 C 13.410156 0.625 9.34375 -1.007812 6.5625 -4.28125 C 3.78125 -7.550781 2.390625 -12.144531 2.390625 -18.0625 L 2.390625 -49.640625 C 2.390625 -55.359375 3.78125 -59.671875 6.5625 -62.578125 C 9.34375 -65.484375 13.410156 -66.9375 18.765625 -66.9375 C 24.117188 -66.9375 28.179688 -65.484375 30.953125 -62.578125 C 33.734375 -59.671875 35.125 -55.359375 35.125 -49.640625 L 35.125 -18.0625 C 35.125 -12.09375 33.734375 -7.484375 30.953125 -4.234375 C 28.179688 -0.992188 24.117188 0.625 18.765625 0.625 Z M 18.765625 -11.578125 C 19.941406 -11.578125 20.734375 -12.09375 21.140625 -13.125 C 21.554688 -14.15625 21.765625 -15.597656 21.765625 -17.453125 L 21.765625 -49.875 C 21.765625 -51.3125 21.570312 -52.476562 21.1875 -53.375 C 20.800781 -54.28125 20.019531 -54.734375 18.84375 -54.734375 C 16.625 -54.734375 15.515625 -53.0625 15.515625 -49.71875 L 15.515625 -17.375 C 15.515625 -15.46875 15.742188 -14.023438 16.203125 -13.046875 C 16.671875 -12.066406 17.523438 -11.578125 18.765625 -11.578125 Z M 18.765625 -11.578125 "/></g></g></g><g fill="#000000" fill-opacity="1"><g transform="translate(276.029625, 155.370904)"><g><path d="M 2.9375 0 L 2.9375 -66.3125 L 16.59375 -66.3125 L 22.703125 -34.59375 L 22.703125 -66.3125 L 35.515625 -66.3125 L 35.515625 0 L 22.546875 0 L 15.90625 -33.203125 L 15.90625 0 Z M 2.9375 0 "/></g></g></g><g fill="#000000" fill-opacity="1"><g transform="translate(69.22927, 263.370897)"><g><path d="M 1.15625 0 L 7.5625 -66.3125 L 30.03125 -66.3125 L 36.359375 0 L 23.78125 0 L 22.859375 -10.734375 L 14.828125 -10.734375 L 14.046875 0 Z M 15.828125 -21.3125 L 21.84375 -21.3125 L 18.921875 -55.046875 L 18.296875 -55.046875 Z M 15.828125 -21.3125 "/></g></g></g><g fill="#000000" fill-opacity="1"><g transform="translate(109.452257, 263.370897)"><g/></g></g><g fill="#000000" fill-opacity="1"><g transform="translate(130.297274, 263.370897)"><g><path d="M 2.9375 -66.3125 L 21.234375 -66.3125 C 25.960938 -66.3125 29.507812 -65 31.875 -62.375 C 34.25 -59.75 35.460938 -55.863281 35.515625 -50.71875 L 35.671875 -19.6875 C 35.722656 -13.144531 34.585938 -8.226562 32.265625 -4.9375 C 29.953125 -1.644531 26.117188 0 20.765625 0 L 2.9375 0 Z M 18.609375 -11.734375 C 21.023438 -11.734375 22.234375 -12.914062 22.234375 -15.28125 L 22.234375 -49.484375 C 22.234375 -50.972656 22.117188 -52.09375 21.890625 -52.84375 C 21.660156 -53.59375 21.234375 -54.09375 20.609375 -54.34375 C 19.992188 -54.601562 19.039062 -54.734375 17.75 -54.734375 L 16.296875 -54.734375 L 16.296875 -11.734375 Z M 18.609375 -11.734375 "/></g></g></g><g fill="#000000" fill-opacity="1"><g transform="translate(171.137894, 263.370897)"><g><path d="M 2.3125 0 L 2.3125 -66.3125 L 15.125 -66.3125 L 15.125 0 Z M 2.3125 0 "/></g></g></g><g fill="#000000" fill-opacity="1"><g transform="translate(191.44248, 263.370897)"><g><path d="M 2.9375 0 L 2.9375 -66.3125 L 23.15625 -66.3125 L 28.71875 -25.859375 L 34.28125 -66.3125 L 54.65625 -66.3125 L 54.65625 0 L 42.53125 0 L 42.53125 -47.78125 L 34.890625 0 L 23 0 L 14.90625 -47.78125 L 14.90625 0 Z M 2.9375 0 "/></g></g></g><g fill="#000000" fill-opacity="1"><g transform="translate(251.815485, 263.370897)"><g><path d="M 2.9375 0 L 2.9375 -66.3125 L 29.484375 -66.3125 L 29.484375 -53.5 L 16.4375 -53.5 L 16.4375 -40.609375 L 28.953125 -40.609375 L 28.953125 -28.109375 L 16.4375 -28.109375 L 16.4375 -12.890625 L 30.34375 -12.890625 L 30.34375 0 Z M 2.9375 0 "/></g></g></g></svg>